<svg width="178" height="40" viewBox="0 0 178 40" fill="none" xmlns="http://www.w3.org/2000/svg">
<g clip-path="url(#clip0_160_783)">
<mask id="mask0_160_783" style="mask-type:luminance" maskUnits="userSpaceOnUse" x="0" y="0" width="40" height="40">
<path d="M40 0H0V40H40V0Z" fill="white"/>
</mask>
<g mask="url(#mask0_160_783)">
<path fill-rule="evenodd" clip-rule="evenodd" d="M21.4286 0H18.5714V12.6506L13.8324 0.921164L11.1833 1.99147L16.0451 14.0248L6.86802 4.8477L4.84772 6.86802L13.6435 15.6638L2.24482 10.6836L1.10092 13.3018L13.1621 18.5714H0V21.4286H13.1621L1.10092 26.6982L2.24482 29.3164L13.6435 24.3362L4.84772 33.132L6.86802 35.1522L16.0451 25.9752L11.1833 38.0086L13.8324 39.0788L18.5714 27.3494V40H21.4286V27.3494L26.1676 39.0788L28.8166 38.0086L23.955 25.9752L33.132 35.1522L35.1522 33.132L26.3564 24.3362L37.7552 29.3164L38.899 26.6982L26.838 21.4286H40V18.5714H26.8378L38.899 13.3018L37.7552 10.6836L26.3564 15.6638L35.1522 6.868L33.132 4.8477L23.955 14.0248L28.8166 1.99147L26.1676 0.921164L21.4286 12.6506V0Z" fill="#6B911B"/>
</g>
<circle cx="20" cy="20" r="5" fill="white"/>
</g>
<path d="M67.56 22.96V19.68H80.12V35H77.64L76.68 31.32C76.0933 32.1733 75.2933 32.9467 74.28 33.64C73.1867 34.3867 72.08 34.92 70.96 35.24C69.68 35.6133 68.44 35.8 67.24 35.8C64.8933 35.8 62.84 35.4133 61.08 34.64C59.3467 33.8933 57.9467 32.8 56.88 31.36C55.84 29.9467 55.08 28.3333 54.6 26.52C54.12 24.68 53.88 22.64 53.88 20.4C53.88 17.9733 54.3733 15.64 55.36 13.4C56.3733 11.1067 57.9067 9.22666 59.96 7.76C62.0133 6.29333 64.52 5.56 67.48 5.56C69.2667 5.56 71.08 5.90666 72.92 6.6C74.6533 7.26666 76.16 8.32 77.44 9.76C78.6667 11.1733 79.4 12.92 79.64 15H75.92C75.3333 12.76 74.2533 11.2 72.68 10.32C71.08 9.44 69.2933 9 67.32 9C65.96 9 64.7333 9.25333 63.64 9.76C62.52 10.2667 61.52 11.0267 60.64 12.04C59.76 13 59.0667 14.2267 58.56 15.72C58.08 17.16 57.84 18.8 57.84 20.64C57.84 24.32 58.6 27.16 60.12 29.16C60.8933 30.28 61.92 31.1333 63.2 31.72C63.92 32.04 64.5867 32.28 65.2 32.44C65.84 32.6267 66.5467 32.72 67.32 32.72C69.5867 32.72 71.5867 32.0267 73.32 30.64C74.6 29.6533 75.4533 28.5467 75.88 27.32C76.3067 26.12 76.52 24.6667 76.52 22.96H67.56ZM83.9528 35V6.2H97.6328C98.4595 6.2 99.2328 6.29333 99.9528 6.48C100.646 6.58666 101.379 6.81333 102.153 7.16C103.539 7.77333 104.633 8.66667 105.433 9.84C106.259 11.0133 106.673 12.4533 106.673 14.16C106.673 17.28 105.353 19.5067 102.713 20.84C103.806 21.16 104.606 21.7333 105.113 22.56C105.619 23.3867 105.939 24.3733 106.073 25.52C106.179 26.5067 106.233 27.84 106.233 29.52C106.233 30.96 106.339 32.08 106.553 32.88C106.739 33.6533 107.153 34.1467 107.793 34.36V35H102.993C102.646 33.9867 102.473 32.4933 102.473 30.52C102.473 28.68 102.406 27.2533 102.273 26.24C102.193 25.3867 101.819 24.5867 101.153 23.84C100.486 23.0933 99.2861 22.72 97.5528 22.72H87.7928V35H83.9528ZM87.7928 19.36H97.6328C98.6995 19.36 99.6195 19.1333 100.393 18.68C101.166 18.2267 101.726 17.6267 102.073 16.88C102.259 16.5333 102.419 16.1467 102.553 15.72C102.659 15.3733 102.713 14.9733 102.713 14.52C102.713 13.08 102.339 11.9067 101.593 11C100.819 10.0667 99.6061 9.6 97.9528 9.6H87.7928V19.36ZM138.659 20.64C138.659 22.3467 138.419 24.0667 137.939 25.8C137.432 27.56 136.659 29.1867 135.619 30.68C134.552 32.2267 133.099 33.4667 131.259 34.4C129.392 35.3333 127.206 35.8 124.699 35.8C122.166 35.8 119.979 35.3333 118.139 34.4C116.326 33.4933 114.872 32.2533 113.779 30.68C112.686 29.08 111.899 27.44 111.419 25.76C110.939 24.0267 110.699 22.32 110.699 20.64C110.699 18.9333 110.939 17.2267 111.419 15.52C111.846 13.8667 112.632 12.24 113.779 10.64C114.872 9.12 116.339 7.89333 118.179 6.96C120.019 6.02666 122.192 5.56 124.699 5.56C127.232 5.56 129.406 6.02666 131.219 6.96C133.059 7.89333 134.512 9.12 135.579 10.64C136.672 12.1867 137.459 13.8133 137.939 15.52C138.419 17.2267 138.659 18.9333 138.659 20.64ZM134.699 20.64C134.699 18.4 134.299 16.3867 133.499 14.6C132.726 12.8667 131.579 11.4933 130.059 10.48C128.566 9.49333 126.779 9 124.699 9C122.592 9 120.806 9.49333 119.339 10.48C117.846 11.4933 116.699 12.88 115.899 14.64C115.099 16.4 114.699 18.4 114.699 20.64C114.699 22.8533 115.099 24.8667 115.899 26.68C116.699 28.4667 117.859 29.8667 119.379 30.88C120.846 31.8667 122.619 32.36 124.699 32.36C126.779 32.36 128.566 31.8667 130.059 30.88C131.552 29.8667 132.699 28.4667 133.499 26.68C134.299 24.8667 134.699 22.8533 134.699 20.64ZM152.233 35H148.153L140.673 6.24H144.873L150.193 29.68L156.753 6.24H160.953L167.553 29.68L172.833 6.24H177.153L169.553 35H165.513L158.953 11.16L152.233 35Z" fill="#6B911B"/>
<defs>
<clipPath id="clip0_160_783">
<rect width="40" height="40" fill="white"/>
</clipPath>
</defs>
</svg>
